<svg width="24" height="24" viewBox="0 0 24 24" fill="none" xmlns="http://www.w3.org/2000/svg">
<path d="M13.8975 4.85249L20.6475 11.6025C20.7528 11.708 20.812 11.8509 20.812 12C20.812 12.1491 20.7528 12.292 20.6475 12.3975L13.8975 19.1475C13.7909 19.2469 13.6498 19.3009 13.5041 19.2984C13.3584 19.2958 13.2193 19.2368 13.1163 19.1337C13.0132 19.0306 12.9542 18.8916 12.9516 18.7459C12.949 18.6002 13.0031 18.4591 13.1025 18.3525L18.8916 12.5625L3.75 12.5625C3.60082 12.5625 3.45774 12.5032 3.35225 12.3977C3.24676 12.2923 3.1875 12.1492 3.1875 12C3.1875 11.8508 3.24676 11.7077 3.35225 11.6022C3.45774 11.4968 3.60082 11.4375 3.75 11.4375L18.8916 11.4375L13.1025 5.64749C13.0031 5.54086 12.949 5.39983 12.9516 5.2541C12.9542 5.10837 13.0132 4.96934 13.1163 4.86628C13.2193 4.76322 13.3584 4.70418 13.5041 4.70161C13.6498 4.69904 13.7909 4.75313 13.8975 4.85249Z" fill="#AD537C"/>
</svg>
