<svg width="20" height="20" viewBox="0 0 20 20" fill="none" xmlns="http://www.w3.org/2000/svg">
<g id="EnvelopeOpen">
<path id="Vector" opacity="0.2" d="M17.5 7.5L11.3633 11.875H8.63672L2.5 7.5L10 2.5L17.5 7.5Z" fill="#AD537C"/>
<path id="Vector_2" d="M17.8469 6.98009L10.3469 1.98009C10.2442 1.91157 10.1235 1.875 10 1.875C9.87653 1.875 9.75583 1.91157 9.65312 1.98009L2.15313 6.98009C2.06751 7.03722 1.99732 7.1146 1.9488 7.20537C1.90029 7.29614 1.87493 7.39748 1.875 7.50041V15.6254C1.875 15.9569 2.0067 16.2749 2.24112 16.5093C2.47554 16.7437 2.79348 16.8754 3.125 16.8754H16.875C17.2065 16.8754 17.5245 16.7437 17.7589 16.5093C17.9933 16.2749 18.125 15.9569 18.125 15.6254V7.50041C18.1251 7.39748 18.0997 7.29614 18.0512 7.20537C18.0027 7.1146 17.9325 7.03722 17.8469 6.98009ZM7.55625 11.8754L3.125 15.0004V8.71369L7.55625 11.8754ZM8.83516 12.5004H11.1648L15.5891 15.6254H4.41094L8.83516 12.5004ZM12.4438 11.8754L16.875 8.71369V15.0004L12.4438 11.8754ZM10 3.25119L16.3992 7.51759L11.1648 11.2504H8.83672L3.60234 7.51759L10 3.25119Z" fill="#AD537C"/>
</g>
</svg>
