<svg width="24" height="24" viewBox="0 0 24 24" fill="none" xmlns="http://www.w3.org/2000/svg">
<g clip-path="url(#clip0_118_321)">
<path d="M22.2534 18.4988L17.0034 7.99875C16.9568 7.90515 16.885 7.8264 16.796 7.77136C16.7071 7.71632 16.6046 7.68716 16.5 7.68716C16.3954 7.68716 16.2929 7.71632 16.204 7.77136C16.115 7.8264 16.0432 7.90515 15.9966 7.99875L13.9059 12.18C12.1587 12.1075 10.4771 11.4939 9.09375 10.4241C10.7019 8.77937 11.6615 6.60886 11.7956 4.3125H14.25C14.3992 4.3125 14.5423 4.25324 14.6477 4.14775C14.7532 4.04226 14.8125 3.89918 14.8125 3.75C14.8125 3.60082 14.7532 3.45774 14.6477 3.35225C14.5423 3.24676 14.3992 3.1875 14.25 3.1875H8.8125V1.5C8.8125 1.35082 8.75324 1.20774 8.64775 1.10225C8.54226 0.996763 8.39918 0.9375 8.25 0.9375C8.10082 0.9375 7.95774 0.996763 7.85225 1.10225C7.74676 1.20774 7.6875 1.35082 7.6875 1.5V3.1875H2.25C2.10082 3.1875 1.95774 3.24676 1.85225 3.35225C1.74676 3.45774 1.6875 3.60082 1.6875 3.75C1.6875 3.89918 1.74676 4.04226 1.85225 4.14775C1.95774 4.25324 2.10082 4.3125 2.25 4.3125H10.6678C10.5343 6.33375 9.67577 8.2389 8.25 9.67781C7.37548 8.79648 6.70669 7.73263 6.29156 6.5625C6.26827 6.4912 6.23094 6.42528 6.18179 6.36861C6.13264 6.31195 6.07265 6.26569 6.00535 6.23255C5.93806 6.19942 5.86481 6.18008 5.78993 6.17567C5.71505 6.17126 5.64004 6.18188 5.56932 6.20689C5.49861 6.2319 5.4336 6.2708 5.37814 6.32131C5.32268 6.37181 5.27788 6.4329 5.24638 6.50098C5.21488 6.56906 5.19732 6.64274 5.19472 6.71771C5.19212 6.79268 5.20454 6.86741 5.23125 6.9375C5.69397 8.24436 6.43623 9.43453 7.40625 10.425C5.93124 11.5694 4.1169 12.1896 2.25 12.1875C2.10082 12.1875 1.95774 12.2468 1.85225 12.3523C1.74676 12.4577 1.6875 12.6008 1.6875 12.75C1.6875 12.8992 1.74676 13.0423 1.85225 13.1477C1.95774 13.2532 2.10082 13.3125 2.25 13.3125C4.43415 13.3145 6.55258 12.5654 8.25 11.1909C9.71309 12.3706 11.491 13.0934 13.3622 13.2694L10.7475 18.4988C10.7145 18.5649 10.6949 18.6368 10.6897 18.7105C10.6845 18.7842 10.6939 18.8582 10.7173 18.9283C10.7646 19.0699 10.8662 19.1868 10.9997 19.2534C11.1332 19.3201 11.2877 19.3309 11.4293 19.2836C11.5708 19.2364 11.6877 19.1348 11.7544 19.0013L13.0978 16.3125H19.9022L21.2466 19.0013C21.2933 19.0948 21.3651 19.1735 21.454 19.2284C21.543 19.2834 21.6455 19.3125 21.75 19.3125C21.8373 19.3127 21.9234 19.2922 22.0012 19.2525C22.1346 19.1859 22.236 19.0691 22.2833 18.9278C22.3305 18.7865 22.3198 18.6322 22.2534 18.4988ZM13.6603 15.1875L16.5 9.50813L19.3397 15.1875H13.6603Z" fill="#25121B"/>
</g>
<defs>
<clipPath id="clip0_118_321">
<rect width="24" height="24" fill="white"/>
</clipPath>
</defs>
</svg>
