<svg width="48" height="40" viewBox="0 0 48 40" fill="none" xmlns="http://www.w3.org/2000/svg">
<path d="M18.94 39.0597L0.939998 21.0597C0.659099 20.7784 0.501319 20.3972 0.501319 19.9997C0.501319 19.6022 0.659099 19.2209 0.939998 18.9397L18.94 0.939691C19.2243 0.674731 19.6004 0.530485 19.989 0.537342C20.3776 0.544198 20.7484 0.701622 21.0232 0.976448C21.2981 1.25127 21.4555 1.62204 21.4623 2.01065C21.4692 2.39925 21.325 2.77534 21.06 3.05969L5.6225 18.4997L46 18.4997C46.3978 18.4997 46.7794 18.6577 47.0607 18.939C47.342 19.2203 47.5 19.6019 47.5 19.9997C47.5 20.3975 47.342 20.779 47.0607 21.0604C46.7794 21.3417 46.3978 21.4997 46 21.4997L5.6225 21.4997L21.06 36.9397C21.325 37.224 21.4692 37.6001 21.4623 37.9887C21.4555 38.3773 21.2981 38.7481 21.0232 39.0229C20.7484 39.2978 20.3776 39.4552 19.989 39.462C19.6004 39.4689 19.2243 39.3247 18.94 39.0597Z" fill="black"/>
</svg>
