<svg width="48" height="40" viewBox="0 0 48 40" fill="none" xmlns="http://www.w3.org/2000/svg">
<path d="M29.06 0.940304L47.06 18.9403C47.3409 19.2216 47.4987 19.6028 47.4987 20.0003C47.4987 20.3978 47.3409 20.7791 47.06 21.0603L29.06 39.0603C28.7757 39.3253 28.3996 39.4695 28.011 39.4627C27.6224 39.4558 27.2516 39.2984 26.9768 39.0236C26.7019 38.7487 26.5445 38.378 26.5377 37.9894C26.5308 37.6008 26.675 37.2247 26.94 36.9403L42.3775 21.5003L2 21.5003C1.60218 21.5003 1.22064 21.3423 0.93934 21.061C0.658035 20.7797 0.5 20.3981 0.5 20.0003C0.5 19.6025 0.658035 19.221 0.93934 18.9396C1.22064 18.6583 1.60218 18.5003 2 18.5003L42.3775 18.5003L26.94 3.06031C26.675 2.77596 26.5308 2.39986 26.5377 2.01126C26.5445 1.62266 26.7019 1.25189 26.9768 0.977063C27.2516 0.702236 27.6224 0.544812 28.011 0.537957C28.3996 0.531102 28.7757 0.675343 29.06 0.940304Z" fill="black"/>
</svg>
